<?xml version="1.0" encoding="utf-8"?>
<!-- Generator: Adobe Illustrator 13.0.2, SVG Export Plug-In . SVG Version: 6.00 Build 14948)  -->
<!DOCTYPE svg PUBLIC "-//W3C//DTD SVG 1.1//EN" "http://www.w3.org/Graphics/SVG/1.1/DTD/svg11.dtd">
<svg version="1.1" id="Layer_1" xmlns="http://www.w3.org/2000/svg" xmlns:xlink="http://www.w3.org/1999/xlink" x="0px" y="0px"
	 width="720px" height="448px" viewBox="0 0 59.21 36.77" enable-background="new 0 0 59.21 36.77" xml:space="preserve">
<rect y="32.233" fill="#706F5E" width="59.002" height="4.536"/>
<g>
	<path fill="#AA0638" d="M35.842,20.761c0.148,0.215,0.3,0.559,0.332,0.838c-1.065-0.966-3.578-0.442-3.578-0.442
		c-0.002,0.18,0.008,6.371-0.008,8.647c0.011,0.102,0.065,0.182,0.192,0.292c0.106,0.093,0.166,0.138,0.258,0.203h-1.683
		l0.375-0.268l0.049-0.056l0.035-0.074l0.02-0.074l-0.009-8.682c-1.023-0.146-2.763-0.307-3.524,0.35
		c0.043-0.132,0.051-0.182,0.09-0.286c0.066-0.193,0.131-0.272,0.229-0.446c0.062,0,0.166,0,0.302-0.001L35.842,20.761"/>
	<path fill="#AA0638" d="M31.782,0.438c-0.39,0.12-0.509,0.159-0.878,0.351c-4.237,2.979-1.161,9.443,3.363,8.396
		c4.215-1.436,3.073-8.322-1.3-8.862C32.425,0.3,32.227,0.34,31.782,0.438 M37.671,4.247c0.151,1.412-0.053,2.22-0.951,3.587
		c-1.515,2.221-4.227,1.762-4.227,1.762c-1.696-0.138-3.364-1.29-3.963-2.582c-0.654-1.479-0.713-3.456,0.387-4.981
		c1.184-1.812,3.537-2.36,5.446-1.824C34.416,0.224,37.344,1.197,37.671,4.247z"/>
</g>
<path fill="#AA0638" d="M49.487,1.515l-2.114,4.758c1.375,0.049,2.675-0.007,4.097,0L49.487,1.515 M54.491,0.688
	c0-0.071,0-0.081-0.002-0.093c-0.004-0.082-0.014-0.138-0.078-0.195l-0.257-0.218h1.464l-0.291,0.226l-0.051,0.067l-0.034,0.078
	L55.237,0.68v8.059l0.017,0.144l0.034,0.062l0.093,0.057l0.135,0.014c0.563,0.002,0.523,0.007,1.289,0.041
	c1.142,0.085,1.827,0.16,2.138-0.334c-0.144,0.457-0.23,1.064-0.702,1.056c-1.227-0.22-4.166-0.22-6.239-0.215
	c0.007-0.004,0.3-0.096,0.478-0.39c0.036-0.061,0.075-0.083,0.07-0.231c-0.027-0.144-0.96-2.196-0.96-2.196
	c-1.201-0.012-2.996-0.012-4.38,0c-0.186,0.406-1.034,2.104-1.034,2.104L46.08,9.002l0.065,0.197l0.483,0.359
	c-0.501,0-1.143-0.017-1.742,0l0.193-0.141l0.16-0.162l0.121-0.163l-6.739-7.773c-0.043,0.114,0.015,7.765,0.015,7.765l0.14,0.231
	l0.263,0.234h-1.344l0.321-0.386c0.05-0.081,0.059-0.189,0.065-0.288c0.031-0.544,0-6.407,0.008-8.172l-0.107-0.222l-0.095-0.126
	l-0.274-0.179h1.426L38.992,0.46l0.047,0.125l5.997,6.891l-0.001-6.513L45.007,0.75l-0.062-0.194l-0.062-0.08l-0.126-0.15
	l-0.143-0.146h1.427c-0.187,0.122-0.363,0.17-0.466,0.574c-0.002,0.045-0.01,0.142-0.02,0.205c-0.001,0.054-0.003,7.65,0.003,7.781
	c1.436-2.907,4.018-8.728,4.018-8.728s2.572,5.887,3.851,8.746c0.167,0.289,0.369,0.573,0.647,0.598
	c0.104,0.013,0.268-0.071,0.346-0.187l0.044-0.065l0.025-0.115l0.005-0.102C54.505,8.747,54.503,0.727,54.491,0.688z"/>
<path fill="#AA0638" d="M39.168,19.606c1.579,0.251,3.004-0.117,3.751-1.587c-0.036,0.225-0.253,0.938-0.587,1.555
	c-2.718,0.732-5.087,0.39-6.562-1.335c-0.688-0.947-0.982-1.802-1.071-2.597c-0.069-0.617-0.054-4.94,4.726-5.631
	c1.291-0.049,2.729,0.354,3.438,1.011l-0.22,1.021c-0.037-0.255-0.117-0.641-0.283-0.847c-0.604-0.656-1.328-0.944-2.48-0.926
	C34.714,10.802,33.934,18.306,39.168,19.606"/>
<path fill="#AA0638" d="M43.759,19.316l-0.066,0.081l-0.355,0.252c1.327,0,2.435,0,3.569,0c0.198-0.002,1.239,0,1.288,0.002
	l0.171-0.781c-0.809,0.912-2.658,0.491-3.834,0.432c0.001-1.375,0.005-2.912,0.008-4.307c0.234,0.011,2.006-0.006,2.194,0.003
	c0.109,0.015,0.277,0.03,0.377,0.074c0.104,0.044,0.146,0.133,0.228,0.201v-0.939c-0.081,0.082-0.113,0.125-0.196,0.184
	c-0.247,0.145-0.511,0.112-1.108,0.115c-0.532,0.006-1.066,0.006-1.494-0.005c0.003-0.365,0.013-3.4,0-4.126
	c0.151-0.026,0.332-0.025,0.447-0.031c0.096,0.01,1.896-0.169,2.514,0.514c-0.056-0.225-0.29-0.702-0.29-0.702h-3.811l0.278,0.188
	l0.115,0.116l-0.016,8.619L43.759,19.316"/>
<g>
	<path fill="#AA0638" d="M50.06,10.61v4.32c1.001,0.003,1.929,0.051,2.55-0.812c0.138-0.26,0.288-0.511,0.362-0.784
		c0.147-0.543,0.107-1.193-0.148-1.685c-0.101-0.192-0.238-0.375-0.419-0.545c-0.228-0.163-0.466-0.38-0.749-0.462
		C51.313,10.55,50.876,10.438,50.06,10.61 M53.042,10.835c0.311,0.297,0.556,0.603,0.687,0.967c0.092,0.252,0.138,0.691,0.133,1.018
		c-0.089,0.586-0.139,1.271-1.449,2.166c1.055,1.606,2.175,3.734,3.986,4.788c-2.326-0.129-3.421-2.985-4.875-4.54H50.06
		c-0.003,1.33-0.006,2.544-0.007,3.957l0.024,0.062l0.182,0.18l0.29,0.223h-1.656l0.323-0.271l0.097-0.122l0.002-8.554l-0.01-0.118
		l-0.127-0.108l-0.389-0.214C50.028,10.222,51.988,9.955,53.042,10.835z"/>
	<path fill="#AA0638" d="M21.438,11.738c-0.694,1.565-1.502,3.059-2.211,4.665h4.263C22.851,14.842,22.086,13.293,21.438,11.738
		 M16.882,1.356l-2.18,4.677c1.267,0.01,2.84-0.006,4.113,0C18.232,4.565,17.604,3.008,16.882,1.356z M17.339,8.751
		c-0.099,0.667-0.138,0.896-0.216,1.562c-0.11-0.159-0.091-0.298-0.241-0.784c-0.067-0.11-0.107-0.188-0.17-0.286
		c-0.235-0.281-0.514-0.46-0.886-0.612c-2.402-0.9-5.64-0.733-7.527,1.155c-1.94,2.159-2.012,5.687-0.707,8.076
		c1.201,2.011,3.365,3.36,5.64,3.347c2.276-0.027,3.623-0.622,4.158-1.561c0,0-0.153,0.002-0.331,0.002c-0.165,0-0.215,0-0.41,0
		c0.295-0.099,0.384-0.199,0.548-0.379l0.121-0.2l4.23-8.946c1.339,2.975,2.875,6.329,4.121,9.021
		c0.133,0.291,0.376,0.41,0.486,0.192c0.019-0.051,0.033-0.131,0.037-0.211l0.008-8.301l-0.02-0.164l-0.136-0.203l-0.237-0.187
		h1.739l-0.134,0.129l-0.089,0.172l-0.016,0.168l0.083,0.133l5.803,7.163l-0.009-7.199l-0.011-0.089
		c-0.134-0.356-0.422-0.417-0.519-0.477h1.753c-0.487,0.148-0.545,0.318-0.605,0.573l0.01,8.946
		c-2.223-2.582-4.704-5.57-6.837-8.179l-0.264-0.282l0.007,7.835l0.034,0.116l0.16,0.192l0.066,0.045l0.253,0.13
		c-0.946,0-1.81,0-2.979,0c0.151-0.05,0.365-0.154,0.421-0.297c0.034-0.12,0.023-0.12,0.022-0.206
		c-0.003-0.142-0.022-0.167-0.047-0.274c-0.29-0.803-0.562-1.249-0.932-1.979c-1.323,0-3.25,0-4.698-0.001
		c-0.246,0.426-0.916,2.217-0.916,2.217l-0.017,0.088l0.003,0.101l0.039,0.059l0.334,0.291c-0.731,0.002-0.864,0.004-0.864,0.004
		c-0.126,0.342-0.104,0.366-0.221,0.677c-0.123,0.363-0.075,0.363-0.2,0.608c-0.614,0.414-1.577,0.506-2.266,0.622
		c-0.239,0.039-0.576,0.078-0.787,0.101c-0.014,0.007-0.082,0.089-0.123,0.192c-0.682,1.657,1.181,2.662,2.079,3.33
		c0.687,0.51,1.486,0.925,1.812,1.792c0.45,1.396-0.301,2.85-1.297,3.22c-1.172,0.497-2.196,0.012-3.237-0.129l-0.128-1.298
		c0.231,0.63,0.668,1.089,1.297,1.298c0.594,0.263,1.532,0.16,2.029-0.148c0.693-0.578,1.016-1.688,0.694-2.538
		c-0.045-0.15-0.219-0.412-0.366-0.551c-1.372-1.278-4.481-2.647-3.142-5.146c-0.436-0.005-1.04-0.048-1.489-0.086l0.001,8.847
		c-2.394-2.587-5.095-5.79-7.343-8.398c0.003,0.827,0.003,7.321,0,7.785l0.036,0.097l0.058,0.076l0.271,0.303H3.911l0.281-0.319
		l0.047-0.08l0.02-0.091l0.008-8.312L4.25,21.411l-0.023-0.069L4.2,21.263l-0.036-0.071l-0.272-0.427h1.592L5.327,21.02
		l-0.015,0.092l0.016,0.102l0.058,0.109l0.188,0.244c2.19,2.326,4.051,4.838,6.14,6.984c0.004-0.95,0.001-5.83,0-6.956
		c-1.991-0.501-3.916-1.208-5.171-3.367c-0.704-1.278-1.011-2.313-1.037-3.563c0.007-4.232,2.921-5.888,2.921-5.888
		C6.148,6.141,4.242,4.074,2.162,1.813c0.001,0.494-0.009,10.429-0.009,10.429l0.049,0.151l0.089,0.12l0.411,0.477H0.635
		l0.407-0.435l0.122-0.151l0.05-0.117L1.232,0.913c0-0.206-0.029-0.271-0.109-0.388C0.984,0.345,0.759,0.153,0.597,0.063
		c-0.138-0.067-0.148-0.062-0.07-0.062c0.513,0.001,1.601,0.001,2.343,0C2.395,0.438,3.487,1.433,4.122,2.118
		c1.822,1.971,3.569,4.095,5.46,6.073l0.697-0.216l0.171-0.049l0.526-0.104l0.597-0.106c-0.011-0.307-0.001-5.616,0.002-6.934
		c-0.015-0.225-0.525-0.633-0.811-0.782h2.507c-0.246,0.154-0.354,0.234-0.479,0.327c-0.243,0.186-0.317,0.324-0.316,0.455
		l0.001,6.853c0.346-0.005,0.504-0.005,0.824,0.023C14.508,5.025,15.737,2.635,16.957,0c1.285,2.827,2.609,6.169,3.95,8.867
		c0.098,0.185,0.296,0.473,0.572,0.515l0.189,0.009l0.203-0.03l0.255-0.156c0.109-0.084,0.125-0.144,0.205-0.319
		c0.054-0.151,0.063-0.28,0.067-0.485c-0.004-0.252-0.01-6.896,0.003-7.829c-1.053-0.262-2.744-0.236-3.669,0.432
		c0.07-0.275,0.149-0.532,0.367-0.82l8.825-0.005l-0.31,0.238l-0.095,0.152l-0.06,0.174l0.006,8.281
		c0.112,0.203,0.245,0.409,0.434,0.538l-0.353-0.005L27.08,9.551l-0.383,0.005l-0.422,0.005l0.264-0.203l0.199-0.325V0.744
		c-0.019-0.122-0.048-0.161-0.072-0.213c-0.04-0.058-0.064-0.102-0.095-0.141c-0.093-0.124-0.204-0.23-0.343-0.215h0.003
		c0.244,0.103,0.244,0.646,0.282,0.826c-0.971-0.744-2.305-0.726-3.402-0.435l-0.009,8.077c0.008,0.026,0.027,0.178,0.099,0.324
		c0.043,0.099,0.085,0.139,0.082,0.135c0.348,0.404,0.685,0.455,0.685,0.455c-1.001-0.001-2.601-0.001-4.496,0
		c0.147-0.056,0.332-0.13,0.419-0.227c0.072-0.077,0.066-0.062,0.102-0.128c0.029-0.068,0.039-0.134,0.018-0.221
		c-0.132-0.424-0.688-1.745-0.976-2.436h-4.532c-0.21,0.507-0.289,0.686-0.537,1.169C15.3,7.823,16.596,8.286,17.339,8.751z"/>
</g>
<path fill="#AA0638" d="M2.852,16.041c-0.278,0.278-0.565,0.396-0.605,0.826l0.009,12.688c0.011,0.048,0.044,0.12,0.044,0.12
	c0.017,0.066,0.065,0.127,0.143,0.226c0.072,0.089,0.162,0.189,0.41,0.396l-2.338,0.001l0.369-0.388l0.153-0.241l0.022-0.093
	c0,0,0.013-12.368-0.003-12.688c-0.028-0.357-0.278-0.527-0.596-0.846H2.852"/>
<path fill="#AA0638" d="M26.45,29.898l-0.012,0.045l-0.042,0.056l-0.073,0.062l-0.332,0.235c0.535,0.002,1.066,0.002,1.623,0.004
	l-0.344-0.26l-0.04-0.051l-0.013-0.036L27.2,29.902l-0.003-8.721c-0.001-0.098,0.064-0.142,0.115-0.183
	c0.021-0.012,0.071-0.05,0.095-0.063c0.117-0.084,0.156-0.104,0.267-0.171h-1.701l0.302,0.196l0.091,0.07l0.057,0.069l0.021,0.08
	L26.45,29.898"/>
<path fill="#AA0638" d="M37.772,21.112l-0.071,0.093l-0.033,0.131c0.007,0.437-0.018,3.548,0.012,4.398
	c0.083,2.429,0.555,3.737,2.387,4.3c1.723,0.204,2.641-0.429,3.47-1.052l-0.006-7.674l-0.091-0.172l-0.105-0.129l-0.201-0.249h1.609
	l-0.344,0.338l-0.073,0.105l-0.042,0.105c-0.006,1.908-0.018,8.131-0.004,8.233c0.013,0.132,0.013,0.19,0.073,0.325
	c0.059,0.193,0.138,0.283,0.262,0.436l-1.445-0.001c0.11-0.171,0.158-0.212,0.22-0.326c0.016-0.031,0.049-0.11,0.062-0.143
	c0.046-0.18,0.062-0.274,0.086-0.58c-1.473,1.382-3.143,1.411-4.627,0.819c-2.081-0.95-2.037-2.883-2.008-6.204
	c-0.011-0.737,0.021-1.631-0.001-2.527l-0.016-0.121l-0.075-0.114l-0.278-0.344l1.556-0.002L37.772,21.112"/>
<path fill="#AA0638" d="M24.918,20.761c0.148,0.215,0.268,0.474,0.3,0.752c-0.854-0.954-3.546-0.356-3.546-0.356
	c-0.001,0.18,0.008,6.371-0.009,8.647c0.012,0.102,0.066,0.182,0.194,0.292c0.106,0.093,0.165,0.138,0.258,0.203h-1.684l0.375-0.268
	l0.05-0.056l0.034-0.074l0.019-0.074l-0.008-8.682c-1.023-0.146-2.763-0.307-3.523,0.35c0.042-0.132,0.051-0.182,0.089-0.286
	c0.067-0.193,0.131-0.272,0.229-0.446c0.062,0,0.166,0,0.301-0.001L24.918,20.761"/>
<path fill="#AA0638" d="M53.199,20.761c0.149,0.215,0.302,0.559,0.333,0.838c-1.065-0.966-3.579-0.442-3.579-0.442
	c-0.001,0.18,0.01,6.371-0.008,8.647c0.012,0.102,0.067,0.182,0.194,0.292c0.104,0.093,0.165,0.138,0.258,0.203h-1.684l0.375-0.268
	l0.05-0.056l0.035-0.074l0.018-0.074l-0.007-8.682c-1.025-0.146-2.764-0.307-3.525,0.35c0.043-0.132,0.052-0.182,0.091-0.286
	c0.066-0.193,0.13-0.272,0.229-0.446c0.061,0,0.166,0,0.301-0.001L53.199,20.761"/>
<path fill="#AA0638" d="M54.364,29.965l-0.065,0.082l-0.356,0.251c1.328,0.001,2.436,0.001,3.569,0
	c0.199-0.002,1.24,0.001,1.289,0.002l0.171-0.781c-0.81,0.912-2.659,0.491-3.834,0.432c0.001-1.375,0.005-2.913,0.008-4.307
	c0.233,0.011,2.005-0.006,2.194,0.004c0.108,0.013,0.276,0.03,0.377,0.073c0.102,0.045,0.146,0.133,0.227,0.201v-0.939
	c-0.082,0.082-0.114,0.125-0.196,0.183c-0.246,0.146-0.51,0.112-1.107,0.115c-0.533,0.007-1.068,0.007-1.494-0.004
	c0.003-0.365,0.011-3.559,0-4.285c0.151-0.025,0.332-0.024,0.447-0.032c0.096,0.012,1.896-0.169,2.512,0.516
	c-0.055-0.227-0.289-0.703-0.289-0.703h-3.81l0.277,0.188l0.115,0.117l-0.015,8.778L54.364,29.965"/>
<path fill="#706F5E" d="M57.115,2.493h0.289V1.849h0.228c0.152,0,0.26,0.018,0.32,0.053c0.104,0.06,0.154,0.187,0.154,0.375v0.13
	l0.006,0.053c0.001,0.008,0.003,0.014,0.004,0.019c0.002,0.006,0.003,0.011,0.004,0.016h0.271l-0.011-0.02
	c-0.008-0.014-0.012-0.042-0.015-0.085s-0.004-0.084-0.004-0.122v-0.12c0-0.082-0.03-0.167-0.09-0.254
	c-0.059-0.086-0.153-0.141-0.282-0.16c0.103-0.016,0.182-0.043,0.238-0.079c0.106-0.069,0.161-0.177,0.161-0.323
	c0-0.206-0.086-0.344-0.255-0.414c-0.094-0.04-0.243-0.059-0.446-0.059h-0.573V2.493 M57.938,1.61
	c-0.062,0.025-0.153,0.037-0.274,0.037h-0.26V1.055h0.245c0.16,0,0.276,0.02,0.348,0.061c0.073,0.04,0.109,0.12,0.109,0.239
	C58.106,1.48,58.051,1.565,57.938,1.61z M58.772,0.627c-0.291-0.289-0.643-0.434-1.056-0.434c-0.41,0-0.76,0.145-1.049,0.434
	C56.377,0.919,56.23,1.27,56.23,1.68c0,0.414,0.145,0.767,0.433,1.058c0.29,0.293,0.641,0.439,1.054,0.439s0.765-0.146,1.056-0.439
	c0.291-0.292,0.438-0.645,0.438-1.058C59.21,1.269,59.063,0.917,58.772,0.627z M58.625,0.771c0.248,0.251,0.373,0.554,0.373,0.908
	c0,0.357-0.125,0.662-0.373,0.914c-0.249,0.252-0.553,0.378-0.908,0.378s-0.658-0.126-0.907-0.378
	c-0.248-0.252-0.372-0.557-0.372-0.914c0-0.354,0.125-0.657,0.374-0.908c0.25-0.251,0.552-0.377,0.905-0.377
	C58.071,0.395,58.373,0.521,58.625,0.771z"/>
</svg>
